<mxfile host="app.diagrams.net" modified="2021-01-02T08:31:08.898Z" agent="5.0 (Windows NT 10.0; Win64; x64) AppleWebKit/537.36 (KHTML, like Gecko) Chrome/87.0.4280.88 Safari/537.36" etag="HZq9JCOwQ-y1qRovd54B" version="14.1.7" type="github">
  <diagram id="s-9LG8zbNk_ZGtj-ESuL" name="Page-1">
    <mxGraphModel dx="1182" dy="742" grid="1" gridSize="10" guides="1" tooltips="1" connect="1" arrows="1" fold="1" page="1" pageScale="1" pageWidth="827" pageHeight="1169" math="0" shadow="0">
      <root>
        <mxCell id="0" />
        <mxCell id="1" parent="0" />
        <mxCell id="adSvFz2QHnfOKHXrZKuJ-3" style="edgeStyle=orthogonalEdgeStyle;rounded=0;orthogonalLoop=1;jettySize=auto;html=1;entryX=0.5;entryY=0;entryDx=0;entryDy=0;" edge="1" parent="1" source="adSvFz2QHnfOKHXrZKuJ-1" target="adSvFz2QHnfOKHXrZKuJ-2">
          <mxGeometry relative="1" as="geometry" />
        </mxCell>
        <mxCell id="adSvFz2QHnfOKHXrZKuJ-1" value="main()" style="ellipse;whiteSpace=wrap;html=1;" vertex="1" parent="1">
          <mxGeometry x="360" y="60" width="120" height="80" as="geometry" />
        </mxCell>
        <mxCell id="adSvFz2QHnfOKHXrZKuJ-7" style="edgeStyle=orthogonalEdgeStyle;rounded=0;orthogonalLoop=1;jettySize=auto;html=1;entryX=0.5;entryY=0;entryDx=0;entryDy=0;" edge="1" parent="1" source="adSvFz2QHnfOKHXrZKuJ-2" target="adSvFz2QHnfOKHXrZKuJ-4">
          <mxGeometry relative="1" as="geometry" />
        </mxCell>
        <mxCell id="adSvFz2QHnfOKHXrZKuJ-8" style="edgeStyle=orthogonalEdgeStyle;rounded=0;orthogonalLoop=1;jettySize=auto;html=1;entryX=0.425;entryY=0.013;entryDx=0;entryDy=0;entryPerimeter=0;" edge="1" parent="1" source="adSvFz2QHnfOKHXrZKuJ-2" target="adSvFz2QHnfOKHXrZKuJ-5">
          <mxGeometry relative="1" as="geometry" />
        </mxCell>
        <mxCell id="adSvFz2QHnfOKHXrZKuJ-9" style="edgeStyle=orthogonalEdgeStyle;rounded=0;orthogonalLoop=1;jettySize=auto;html=1;entryX=0.567;entryY=-0.05;entryDx=0;entryDy=0;entryPerimeter=0;" edge="1" parent="1" source="adSvFz2QHnfOKHXrZKuJ-2" target="adSvFz2QHnfOKHXrZKuJ-6">
          <mxGeometry relative="1" as="geometry" />
        </mxCell>
        <mxCell id="adSvFz2QHnfOKHXrZKuJ-2" value="Airline" style="ellipse;whiteSpace=wrap;html=1;" vertex="1" parent="1">
          <mxGeometry x="360" y="240" width="120" height="80" as="geometry" />
        </mxCell>
        <mxCell id="adSvFz2QHnfOKHXrZKuJ-4" value="airplane2" style="ellipse;whiteSpace=wrap;html=1;" vertex="1" parent="1">
          <mxGeometry x="360" y="370" width="120" height="80" as="geometry" />
        </mxCell>
        <mxCell id="adSvFz2QHnfOKHXrZKuJ-5" value="airplane1" style="ellipse;whiteSpace=wrap;html=1;" vertex="1" parent="1">
          <mxGeometry x="75" y="370" width="120" height="80" as="geometry" />
        </mxCell>
        <mxCell id="adSvFz2QHnfOKHXrZKuJ-6" value="airplane3" style="ellipse;whiteSpace=wrap;html=1;" vertex="1" parent="1">
          <mxGeometry x="600" y="370" width="120" height="80" as="geometry" />
        </mxCell>
        <mxCell id="adSvFz2QHnfOKHXrZKuJ-10" value="seat" style="ellipse;whiteSpace=wrap;html=1;" vertex="1" parent="1">
          <mxGeometry x="20" y="480" width="70" height="50" as="geometry" />
        </mxCell>
        <mxCell id="adSvFz2QHnfOKHXrZKuJ-11" value="" style="ellipse;whiteSpace=wrap;html=1;" vertex="1" parent="1">
          <mxGeometry x="100" y="480" width="70" height="50" as="geometry" />
        </mxCell>
        <mxCell id="adSvFz2QHnfOKHXrZKuJ-12" value="" style="ellipse;whiteSpace=wrap;html=1;" vertex="1" parent="1">
          <mxGeometry x="180" y="480" width="70" height="50" as="geometry" />
        </mxCell>
        <mxCell id="adSvFz2QHnfOKHXrZKuJ-13" value="" style="ellipse;whiteSpace=wrap;html=1;" vertex="1" parent="1">
          <mxGeometry x="20" y="540" width="70" height="50" as="geometry" />
        </mxCell>
        <mxCell id="adSvFz2QHnfOKHXrZKuJ-14" value="" style="ellipse;whiteSpace=wrap;html=1;" vertex="1" parent="1">
          <mxGeometry x="100" y="540" width="70" height="50" as="geometry" />
        </mxCell>
        <mxCell id="adSvFz2QHnfOKHXrZKuJ-15" value="" style="ellipse;whiteSpace=wrap;html=1;" vertex="1" parent="1">
          <mxGeometry x="100" y="600" width="70" height="50" as="geometry" />
        </mxCell>
        <mxCell id="adSvFz2QHnfOKHXrZKuJ-16" value="" style="ellipse;whiteSpace=wrap;html=1;" vertex="1" parent="1">
          <mxGeometry x="180" y="600" width="70" height="50" as="geometry" />
        </mxCell>
        <mxCell id="adSvFz2QHnfOKHXrZKuJ-17" value="" style="ellipse;whiteSpace=wrap;html=1;" vertex="1" parent="1">
          <mxGeometry x="180" y="540" width="70" height="50" as="geometry" />
        </mxCell>
        <mxCell id="adSvFz2QHnfOKHXrZKuJ-25" value="seat" style="ellipse;whiteSpace=wrap;html=1;" vertex="1" parent="1">
          <mxGeometry x="299" y="480" width="70" height="50" as="geometry" />
        </mxCell>
        <mxCell id="adSvFz2QHnfOKHXrZKuJ-26" value="" style="ellipse;whiteSpace=wrap;html=1;" vertex="1" parent="1">
          <mxGeometry x="379" y="480" width="70" height="50" as="geometry" />
        </mxCell>
        <mxCell id="adSvFz2QHnfOKHXrZKuJ-27" value="" style="ellipse;whiteSpace=wrap;html=1;" vertex="1" parent="1">
          <mxGeometry x="459" y="480" width="70" height="40" as="geometry" />
        </mxCell>
        <mxCell id="adSvFz2QHnfOKHXrZKuJ-28" value="" style="ellipse;whiteSpace=wrap;html=1;" vertex="1" parent="1">
          <mxGeometry x="299" y="540" width="70" height="50" as="geometry" />
        </mxCell>
        <mxCell id="adSvFz2QHnfOKHXrZKuJ-29" value="" style="ellipse;whiteSpace=wrap;html=1;" vertex="1" parent="1">
          <mxGeometry x="379" y="540" width="70" height="50" as="geometry" />
        </mxCell>
        <mxCell id="adSvFz2QHnfOKHXrZKuJ-30" value="" style="ellipse;whiteSpace=wrap;html=1;" vertex="1" parent="1">
          <mxGeometry x="379" y="600" width="70" height="50" as="geometry" />
        </mxCell>
        <mxCell id="adSvFz2QHnfOKHXrZKuJ-31" value="" style="ellipse;whiteSpace=wrap;html=1;" vertex="1" parent="1">
          <mxGeometry x="459" y="600" width="70" height="50" as="geometry" />
        </mxCell>
        <mxCell id="adSvFz2QHnfOKHXrZKuJ-32" value="" style="ellipse;whiteSpace=wrap;html=1;" vertex="1" parent="1">
          <mxGeometry x="459" y="540" width="70" height="50" as="geometry" />
        </mxCell>
        <mxCell id="adSvFz2QHnfOKHXrZKuJ-33" value="seat" style="ellipse;whiteSpace=wrap;html=1;" vertex="1" parent="1">
          <mxGeometry x="550" y="480" width="70" height="50" as="geometry" />
        </mxCell>
        <mxCell id="adSvFz2QHnfOKHXrZKuJ-34" value="" style="ellipse;whiteSpace=wrap;html=1;" vertex="1" parent="1">
          <mxGeometry x="630" y="480" width="70" height="50" as="geometry" />
        </mxCell>
        <mxCell id="adSvFz2QHnfOKHXrZKuJ-35" value="" style="ellipse;whiteSpace=wrap;html=1;" vertex="1" parent="1">
          <mxGeometry x="710" y="480" width="70" height="50" as="geometry" />
        </mxCell>
        <mxCell id="adSvFz2QHnfOKHXrZKuJ-36" value="" style="ellipse;whiteSpace=wrap;html=1;" vertex="1" parent="1">
          <mxGeometry x="550" y="540" width="70" height="50" as="geometry" />
        </mxCell>
        <mxCell id="adSvFz2QHnfOKHXrZKuJ-37" value="" style="ellipse;whiteSpace=wrap;html=1;" vertex="1" parent="1">
          <mxGeometry x="630" y="540" width="70" height="50" as="geometry" />
        </mxCell>
        <mxCell id="adSvFz2QHnfOKHXrZKuJ-38" value="" style="ellipse;whiteSpace=wrap;html=1;" vertex="1" parent="1">
          <mxGeometry x="630" y="600" width="70" height="50" as="geometry" />
        </mxCell>
        <mxCell id="adSvFz2QHnfOKHXrZKuJ-39" value="" style="ellipse;whiteSpace=wrap;html=1;" vertex="1" parent="1">
          <mxGeometry x="710" y="600" width="70" height="50" as="geometry" />
        </mxCell>
        <mxCell id="adSvFz2QHnfOKHXrZKuJ-40" value="" style="ellipse;whiteSpace=wrap;html=1;" vertex="1" parent="1">
          <mxGeometry x="710" y="540" width="70" height="50" as="geometry" />
        </mxCell>
        <mxCell id="adSvFz2QHnfOKHXrZKuJ-42" style="edgeStyle=orthogonalEdgeStyle;rounded=0;orthogonalLoop=1;jettySize=auto;html=1;entryX=0.5;entryY=0;entryDx=0;entryDy=0;" edge="1" parent="1" source="adSvFz2QHnfOKHXrZKuJ-41" target="adSvFz2QHnfOKHXrZKuJ-2">
          <mxGeometry relative="1" as="geometry" />
        </mxCell>
        <mxCell id="adSvFz2QHnfOKHXrZKuJ-41" value="console" style="ellipse;whiteSpace=wrap;html=1;" vertex="1" parent="1">
          <mxGeometry x="600" y="140" width="120" height="80" as="geometry" />
        </mxCell>
      </root>
    </mxGraphModel>
  </diagram>
</mxfile>
